<svg width="998" height="501" viewBox="0 0 998 501" fill="none" xmlns="http://www.w3.org/2000/svg">
<g clip-path="url(#clip0_277_68)">
<path d="M328.653 500.28C298.54 500.28 268.472 499.741 238.449 498.663C195.55 497.122 151.189 495.529 109.958 472.661C81.1155 456.666 55.5706 431.002 36.0861 398.443C23.063 376.375 13.5139 352.434 7.77416 327.461C-2.9326 281.994 -2.56791 234.621 8.83755 189.324C12.8345 173.794 18.3445 158.693 25.2885 144.238C55.3567 81.9726 110.199 40.1756 175.753 29.565C176.295 29.4947 176.842 29.483 177.386 29.5301C177.681 29.5459 177.975 29.5628 178.274 29.5503L178.66 29.4277C179.649 29.084 180.664 28.8234 181.696 28.6484C282.799 13.5972 389.679 44.0511 490.773 116.715C568.94 172.907 672.532 203.165 807.471 209.219L809.387 209.32C846.951 211.477 883.286 226.964 914.469 254.107C945.248 280.898 968.358 316.641 981.299 357.475C982.89 362.454 984.349 367.636 985.634 372.877C986.831 377.748 986.746 382.845 985.389 387.674C984.032 392.502 981.448 396.897 977.888 400.431V400.441L977.552 400.786C976.743 401.591 975.892 402.362 975.022 403.081L973.999 403.924C965.375 411.028 958.564 416.639 950.412 420.997C944.976 423.885 939.194 426.068 933.205 427.494C900.322 435.511 866.929 442.944 833.953 449.587C769.912 462.5 704.184 473.152 638.594 481.246C535.767 493.925 432.259 500.282 328.653 500.28ZM176.619 31.7354C176.418 31.7335 176.217 31.7472 176.017 31.7763C111.076 42.2878 56.7528 83.6743 26.9828 145.323C20.1073 159.635 14.6518 174.586 10.6946 189.963C-0.606935 234.858 -0.967083 281.81 9.64444 326.874C15.328 351.608 24.7845 375.32 37.6819 397.177C56.9757 429.417 82.2593 454.823 110.8 470.649C151.661 493.313 195.812 494.898 238.51 496.431C372.053 501.202 505.764 495.383 638.387 479.027C703.935 470.937 769.62 460.293 833.619 447.388C866.573 440.75 899.943 433.323 932.803 425.31C938.647 423.919 944.291 421.79 949.596 418.973C957.584 414.703 964.33 409.144 972.87 402.108L973.893 401.266C974.642 400.648 975.376 399.988 976.079 399.301L976.281 399.09C983.299 392.015 986.029 382.682 983.769 373.484V373.483C982.497 368.297 981.054 363.171 979.479 358.244C953.041 274.827 884.649 215.877 809.294 211.549L807.389 211.449C745.751 208.683 691.812 201.021 642.499 188.024C583.631 172.509 532.238 149.154 489.747 118.608C389.037 46.2226 282.604 15.8821 181.943 30.8619C181.003 31.0241 180.078 31.2639 179.177 31.579L178.482 31.7735C178.087 31.7912 177.691 31.7865 177.297 31.7594C177.065 31.7474 176.839 31.7354 176.619 31.7354Z" fill="#F1FAEE"/>
<path d="M311.727 162.997C308.939 160.323 306.088 145.407 302.529 143.893C305.189 149.773 303.257 151.33 303.243 157.783C303.277 161.447 302.849 165.1 301.97 168.658H241.679V121.605C241.679 117.378 242.511 113.191 244.129 109.285C245.747 105.379 248.119 101.83 251.108 98.8407C254.097 95.8512 257.647 93.4798 261.553 91.862C265.458 90.2441 269.645 89.4115 273.873 89.4116C275.486 89.4431 277.09 89.6778 278.644 90.1102C283.827 91.5093 288.55 94.2466 292.34 98.0473C296.13 101.848 298.855 106.579 300.24 111.765C304.836 128.564 312.146 156.529 311.727 162.997Z" fill="#2F2E41"/>
<path d="M245.217 220.881L245.246 184.206L223.688 186.133L231.296 209.263L227.736 267.402C226.009 267.79 224.432 268.672 223.197 269.94C221.962 271.208 221.124 272.808 220.783 274.545C220.442 276.282 220.613 278.08 221.277 279.721C221.941 281.362 223.067 282.774 224.52 283.786C225.972 284.798 227.687 285.365 229.456 285.419C231.226 285.472 232.972 285.01 234.483 284.088C235.994 283.166 237.204 281.824 237.966 280.227C238.727 278.629 239.008 276.844 238.773 275.09L245.217 220.881Z" fill="#FFB6B6"/>
<path d="M287.643 482.957L296.352 482.956L300.496 449.363H287.641L287.643 482.957Z" fill="#FFB6B6"/>
<path d="M284.693 478.661L298.461 477.839V483.738L311.551 492.778C312.197 493.224 312.684 493.866 312.941 494.608C313.197 495.351 313.209 496.156 312.975 496.907C312.741 497.657 312.274 498.312 311.641 498.778C311.008 499.244 310.243 499.495 309.457 499.495H293.066L290.24 493.66L289.137 499.495H282.957L284.693 478.661Z" fill="#2F2E41"/>
<path d="M237.283 482.957L245.993 482.956L250.135 449.363H237.281L237.283 482.957Z" fill="#FFB6B6"/>
<path d="M234.333 478.661L248.102 477.839V483.738L261.191 492.778C261.838 493.224 262.325 493.866 262.581 494.608C262.837 495.351 262.849 496.156 262.615 496.907C262.382 497.657 261.914 498.312 261.281 498.778C260.648 499.244 259.883 499.495 259.097 499.495H242.706L239.881 493.66L238.778 499.495H232.597L234.333 478.661Z" fill="#2F2E41"/>
<path d="M279.887 144.601L261.844 144.955L249.108 158.398L238.898 159.896C234.279 160.573 230.033 162.815 226.868 166.248C223.704 169.68 221.814 174.094 221.514 178.753L223.283 188.469H233.896L240.036 224.519C237.648 230.602 237.486 235.404 242.386 237.29L257.599 265.946L302.529 245.781C304.807 241.864 305.537 237.929 303.208 234.103L306.42 178.917H317.22C317.22 168.596 313.729 159.894 303.471 158.746C299.398 158.305 295.305 158.071 291.208 158.044L279.887 144.601Z" fill="#E6E6E6"/>
<path d="M302.529 245.781C302.529 245.781 258.66 253.564 242.386 237.29C242.386 237.29 240.734 240.095 238.245 244.747C237.529 246.085 236.146 246.991 235.311 248.611C234.552 250.084 232.6 251.894 231.773 253.565C231.108 254.908 232.175 256.664 231.483 258.116C223.149 275.596 213.412 300.254 215.499 316.536C216.846 327.036 219.626 351.469 222.554 377.711C222.783 379.761 220.93 382.395 221.16 384.461C221.377 386.41 223.677 387.791 223.893 389.745C224.037 391.041 222.431 392.364 222.575 393.66C222.732 395.081 224.64 396.474 224.796 397.89C228.808 434.124 232.481 467.953 232.481 467.953H253L256.871 390.691L253.707 362.527L261.137 305.569L271.396 359.697L272.716 390.161L283.558 469.368H302.529V392.69L303.944 388.707L302.529 383.598L303.944 378.094L302.529 372.099V245.781Z" fill="#2F2E41"/>
<path d="M285.425 134.138C282.63 137.85 278.654 140.501 274.152 141.652C269.649 142.803 264.889 142.386 260.655 140.471C256.422 138.555 252.966 135.255 250.858 131.113C248.751 126.972 248.116 122.236 249.06 117.686C250.003 113.135 252.468 109.042 256.049 106.08C259.629 103.117 264.112 101.463 268.758 101.388C273.405 101.314 277.938 102.824 281.612 105.67C285.285 108.517 287.88 112.529 288.968 117.047C289.027 117.292 289.077 117.536 289.125 117.789C289.7 120.621 289.667 123.542 289.029 126.36C288.392 129.179 287.163 131.829 285.425 134.138V134.138Z" fill="#FFB6B6"/>
<path d="M281.161 122.469C280.727 120.291 279.629 118.301 278.019 116.773C278.178 118.859 277.888 120.956 277.17 122.921C271.791 123.398 266.388 122.327 261.597 119.836C257.988 117.388 253.396 117.601 248.047 119.836C248.047 117.235 248.559 114.658 249.555 112.255C250.55 109.851 252.009 107.667 253.849 105.827C255.689 103.987 257.873 102.528 260.277 101.532C262.68 100.537 265.257 100.025 267.859 100.025H271.396C276.65 100.026 281.689 102.113 285.404 105.829C289.119 109.544 291.207 114.582 291.208 119.836C287.943 121.008 284.581 121.888 281.161 122.469V122.469Z" fill="#2F2E41"/>
<path d="M126.385 374.974C157.819 374.974 183.301 349.492 183.301 318.058C183.301 286.625 157.819 261.143 126.385 261.143C94.9515 261.143 69.4695 286.625 69.4695 318.058C69.4695 349.492 94.9515 374.974 126.385 374.974Z" fill="#F0F0F0"/>
<path d="M489.083 113.831C520.517 113.831 545.999 88.3493 545.999 56.9157C545.999 25.482 520.517 0 489.083 0C457.649 0 432.167 25.482 432.167 56.9157C432.167 88.3493 457.649 113.831 489.083 113.831Z" fill="#F0F0F0"/>
<path d="M941.06 383.902C972.494 383.902 997.976 358.42 997.976 326.986C997.976 295.552 972.494 270.07 941.06 270.07C909.627 270.07 884.145 295.552 884.145 326.986C884.145 358.42 909.627 383.902 941.06 383.902Z" fill="#F0F0F0"/>
<path d="M591.754 63.1226V192.183C591.755 194.864 590.697 197.436 588.812 199.342C586.926 201.247 584.365 202.332 581.684 202.36C581.647 202.364 581.61 202.365 581.573 202.365H566.552C554.533 202.365 543.007 197.59 534.508 189.092C526.01 180.593 521.235 169.067 521.235 157.048V63.1226C521.235 60.4222 522.308 57.8325 524.217 55.9231C526.127 54.0136 528.716 52.9409 531.417 52.9409H537.503C534.684 61.1665 572.953 64.6296 575.054 52.9409H581.573C584.273 52.9409 586.863 54.0137 588.772 55.9231C590.682 57.8325 591.754 60.4223 591.754 63.1226V63.1226Z" fill="#457B9D"/>
<path d="M547.178 43.2901C547.179 42.9364 547.32 42.5972 547.57 42.3471C547.82 42.0969 548.159 41.9562 548.513 41.9558H557.586C557.939 41.9568 558.278 42.0979 558.527 42.348C558.777 42.5981 558.917 42.9369 558.917 43.2901C558.917 43.6434 558.777 43.9822 558.527 44.2323C558.278 44.4824 557.939 44.6235 557.586 44.6245H548.513C548.159 44.6241 547.82 44.4834 547.57 44.2332C547.32 43.9831 547.179 43.6439 547.178 43.2901V43.2901Z" fill="#3F3D56"/>
<path d="M584.69 218.735H527.31C522.859 218.73 518.59 216.959 515.443 213.811C512.295 210.663 510.524 206.395 510.519 201.944V111.725C510.204 111.499 509.947 111.201 509.77 110.856C509.593 110.51 509.501 110.128 509.502 109.74V100.667C509.501 100.279 509.593 99.8965 509.77 99.5513C509.947 99.2062 510.204 98.9082 510.519 98.682V96.2468C510.204 96.0207 509.947 95.7226 509.77 95.3775C509.593 95.0323 509.501 94.65 509.502 94.2622V85.1882C509.501 84.8004 509.593 84.4181 509.77 84.0729C509.947 83.7278 510.204 83.4298 510.519 83.2036V78.8023C510.13 78.5934 509.805 78.2826 509.579 77.9033C509.352 77.524 509.234 77.0904 509.235 76.6488V67.5754C509.234 67.1337 509.352 66.7 509.579 66.3206C509.805 65.9412 510.13 65.6303 510.519 65.4213V53.3611C510.524 48.9093 512.295 44.6414 515.443 41.4935C518.591 38.3457 522.859 36.5751 527.31 36.5701H584.69C589.142 36.5751 593.41 38.3458 596.558 41.4936C599.706 44.6415 601.476 48.9095 601.481 53.3612V79.6497C601.784 79.8388 602.033 80.1017 602.206 80.4137C602.379 80.7257 602.47 81.0765 602.47 81.4332V98.7344C602.47 99.0911 602.379 99.442 602.206 99.754C602.033 100.066 601.784 100.329 601.481 100.518V201.944C601.476 206.395 599.706 210.663 596.558 213.811C593.41 216.959 589.142 218.73 584.69 218.735V218.735ZM527.31 38.8021C523.45 38.8064 519.75 40.3417 517.02 43.0711C514.291 45.8005 512.755 49.5011 512.751 53.3612V67.3198L511.677 67.3612C511.621 67.3632 511.568 67.3866 511.529 67.4264C511.49 67.4662 511.468 67.5196 511.467 67.5754V76.6487C511.468 76.7045 511.49 76.7578 511.53 76.7976C511.569 76.8374 511.621 76.8607 511.677 76.8629L512.751 76.9038V84.7707L511.902 84.98C511.855 84.9913 511.813 85.0179 511.782 85.0556C511.752 85.0932 511.735 85.1398 511.734 85.1882V94.2622C511.735 94.3105 511.752 94.3572 511.782 94.3948C511.813 94.4324 511.855 94.459 511.902 94.4703L512.751 94.6796V100.249L511.902 100.458C511.855 100.47 511.813 100.496 511.782 100.534C511.752 100.572 511.735 100.618 511.734 100.667V109.74C511.735 109.788 511.752 109.835 511.782 109.873C511.813 109.911 511.855 109.937 511.902 109.949L512.751 110.158V201.944C512.755 205.804 514.291 209.504 517.02 212.234C519.75 214.963 523.45 216.498 527.31 216.503H584.69C588.55 216.498 592.251 214.963 594.98 212.234C597.71 209.504 599.245 205.804 599.249 201.944V98.6074H600.238V81.5607H599.249V53.3611C599.245 49.5012 597.71 45.8006 594.98 43.0712C592.251 40.3417 588.55 38.8064 584.69 38.802L527.31 38.8021Z" fill="#3F3D56"/>
<path d="M562.657 44.6245C563.394 44.6245 563.991 44.0271 563.991 43.2901C563.991 42.5532 563.394 41.9558 562.657 41.9558C561.92 41.9558 561.323 42.5532 561.323 43.2901C561.323 44.0271 561.92 44.6245 562.657 44.6245Z" fill="#3F3D56"/>
<path d="M272.392 301.768H123.086C120.966 301.762 118.934 300.918 117.435 299.418C115.935 297.919 115.09 295.888 115.085 293.767V221.017C115.09 218.896 115.935 216.865 117.434 215.365C118.933 213.866 120.965 213.021 123.085 213.015H272.391C274.511 213.021 276.543 213.865 278.042 215.364C279.542 216.864 280.387 218.895 280.392 221.016V293.766C280.387 295.886 279.542 297.918 278.043 299.418C276.544 300.917 274.512 301.762 272.392 301.768Z" fill="white"/>
<path d="M272.392 301.768H123.086C120.966 301.762 118.934 300.918 117.435 299.418C115.935 297.919 115.09 295.888 115.085 293.767V221.017C115.09 218.896 115.935 216.865 117.434 215.365C118.933 213.866 120.965 213.021 123.085 213.015H272.391C274.511 213.021 276.543 213.865 278.042 215.364C279.542 216.864 280.387 218.895 280.392 221.016V293.766C280.387 295.886 279.542 297.918 278.043 299.418C276.544 300.917 274.512 301.762 272.392 301.768ZM123.086 215.247C121.557 215.252 120.092 215.861 119.011 216.942C117.93 218.024 117.321 219.489 117.317 221.018V293.766C117.321 295.295 117.931 296.76 119.012 297.841C120.093 298.922 121.558 299.532 123.087 299.536H272.39C273.919 299.532 275.384 298.922 276.466 297.841C277.547 296.76 278.156 295.294 278.16 293.765V221.017C278.156 219.488 277.546 218.023 276.465 216.942C275.384 215.861 273.919 215.251 272.39 215.247L123.086 215.247Z" fill="#3F3D56"/>
<path d="M205.741 291.016C176.295 291.016 145.59 290.735 134.134 290.553C132.627 290.522 131.191 289.902 130.134 288.828C129.077 287.753 128.482 286.307 128.477 284.799V224.579C128.477 224.039 128.692 223.521 129.073 223.139C129.454 222.757 129.971 222.541 130.511 222.539H264.961C265.501 222.54 266.018 222.754 266.401 223.135C266.783 223.516 266.998 224.033 267 224.573V265.432C266.975 272.102 264.337 278.496 259.652 283.243C254.966 287.989 248.607 290.711 241.939 290.823C231.262 290.962 218.618 291.016 205.741 291.016Z" fill="#457B9D"/>
<path d="M256.981 261.678H135.494C134.477 261.675 133.485 261.359 132.654 260.773C131.822 260.187 131.192 259.359 130.847 258.402L117.097 219.826C116.832 219.082 116.749 218.286 116.856 217.503C116.963 216.72 117.256 215.975 117.71 215.329C118.165 214.683 118.768 214.156 119.468 213.791C120.169 213.427 120.947 213.236 121.737 213.234L273.592 213.023C274.314 213.022 275.028 213.18 275.682 213.485C276.336 213.789 276.916 214.234 277.38 214.787C277.844 215.34 278.18 215.988 278.367 216.686C278.553 217.383 278.584 218.113 278.457 218.824L278.575 218.873L278.139 219.891L278.134 219.901L261.512 258.688C261.133 259.576 260.501 260.333 259.696 260.864C258.89 261.396 257.946 261.679 256.981 261.678V261.678ZM273.599 215.255L121.741 215.466C121.308 215.467 120.882 215.572 120.498 215.771C120.115 215.971 119.784 216.26 119.535 216.614C119.286 216.967 119.126 217.376 119.067 217.804C119.009 218.233 119.054 218.669 119.199 219.077L132.949 257.651C133.138 258.176 133.484 258.629 133.939 258.95C134.395 259.271 134.938 259.445 135.496 259.446H256.981C257.509 259.447 258.026 259.292 258.466 259.001C258.907 258.71 259.253 258.295 259.46 257.809L276.083 219.021L276.901 219.372L276.083 219.021C276.259 218.61 276.331 218.162 276.291 217.717C276.251 217.271 276.102 216.843 275.855 216.469C275.609 216.096 275.274 215.79 274.881 215.578C274.487 215.366 274.047 215.255 273.599 215.255V215.255Z" fill="#3F3D56"/>
<path d="M197.512 270.075C202.766 270.075 207.025 265.816 207.025 260.562C207.025 255.309 202.766 251.05 197.512 251.05C192.258 251.05 187.999 255.309 187.999 260.562C187.999 265.816 192.258 270.075 197.512 270.075Z" fill="white"/>
<path d="M556.862 187.492C562.116 187.492 566.375 183.233 566.375 177.979C566.375 172.725 562.116 168.466 556.862 168.466C551.608 168.466 547.349 172.725 547.349 177.979C547.349 183.233 551.608 187.492 556.862 187.492Z" fill="white"/>
<path d="M916.654 315.96L891.242 290.873C890.005 289.642 888.538 288.667 886.923 288.004C885.309 287.342 883.58 287.004 881.835 287.011H881.745C879.987 287.016 878.247 287.37 876.627 288.052C875.006 288.734 873.537 289.731 872.304 290.984C866.622 296.734 863.391 304.463 863.289 312.547C863.187 320.63 866.222 328.438 871.757 334.329C872.025 334.62 872.304 334.899 872.583 335.178C874.128 336.714 875.835 338.079 877.672 339.251C882.696 342.497 888.554 344.214 894.535 344.195H894.724C898.83 344.181 902.891 343.353 906.675 341.759C910.458 340.166 913.887 337.837 916.765 334.91C919.259 332.38 920.648 328.964 920.627 325.412C920.606 321.86 919.177 318.461 916.654 315.96V315.96ZM915.181 333.336C910.463 338.089 904.25 341.07 897.591 341.778C890.932 342.485 884.232 340.875 878.621 337.22C877.016 336.158 875.517 334.943 874.145 333.593C868.67 328.185 865.567 320.824 865.519 313.129C865.471 305.433 868.481 298.034 873.889 292.558C874.917 291.51 876.143 290.678 877.495 290.109C878.848 289.54 880.3 289.246 881.768 289.243H881.835C883.288 289.238 884.727 289.519 886.072 290.071C887.416 290.622 888.638 291.433 889.669 292.457L915.08 317.556C917.184 319.637 918.376 322.467 918.395 325.425C918.413 328.384 917.258 331.229 915.181 333.336V333.336Z" fill="#3F3D56"/>
<path d="M833.278 233.622L807.867 208.523C805.365 206.042 801.982 204.653 798.459 204.662H798.381C796.62 204.669 794.878 205.025 793.256 205.708C791.634 206.392 790.163 207.391 788.928 208.646C784.231 213.416 781.185 219.566 780.237 226.193C779.289 232.821 780.489 239.578 783.661 245.474L783.672 245.485C784.98 247.896 786.605 250.122 788.504 252.103C788.716 252.348 788.962 252.594 789.207 252.839C795.043 258.632 802.937 261.874 811.159 261.857H811.36C815.465 261.839 819.527 261.009 823.31 259.413C827.093 257.818 830.523 255.489 833.401 252.56C834.636 251.309 835.613 249.826 836.276 248.197C836.938 246.568 837.273 244.824 837.262 243.066C837.25 241.307 836.893 239.568 836.209 237.947C835.526 236.327 834.529 234.857 833.278 233.622V233.622ZM831.805 250.998C829.133 253.715 825.95 255.877 822.439 257.357C818.928 258.838 815.159 259.609 811.349 259.625H811.159C805.436 259.622 799.842 257.928 795.08 254.755C790.318 251.582 786.601 247.071 784.395 241.791C782.19 236.511 781.595 230.696 782.685 225.079C783.776 219.461 786.503 214.291 790.524 210.22C792.605 208.116 795.435 206.924 798.393 206.905C801.352 206.886 804.197 208.042 806.304 210.119L831.715 235.207C833.818 237.291 835.008 240.124 835.024 243.084C835.041 246.044 833.883 248.89 831.805 250.998L831.805 250.998Z" fill="#3F3D56"/>
<path d="M918.278 323.847L890.263 296.178C888.426 294.368 885.946 293.36 883.366 293.376C880.787 293.392 878.32 294.43 876.505 296.263C874.236 298.556 872.44 301.274 871.221 304.262C870.003 307.249 869.385 310.448 869.403 313.674C869.421 316.901 870.075 320.092 871.328 323.065C872.58 326.039 874.406 328.736 876.702 331.004C878.997 333.271 881.717 335.063 884.706 336.279C887.695 337.494 890.894 338.109 894.12 338.087C897.347 338.065 900.537 337.407 903.51 336.152C906.482 334.896 909.177 333.067 911.442 330.769L918.278 323.847Z" fill="#457B9D"/>
<path d="M834.907 241.505L806.892 213.835C805.055 212.025 802.575 211.017 799.996 211.033C797.416 211.049 794.949 212.088 793.135 213.921C790.865 216.214 789.069 218.932 787.851 221.919C786.632 224.907 786.014 228.105 786.032 231.332C786.05 234.558 786.704 237.749 787.957 240.723C789.209 243.696 791.035 246.394 793.331 248.661C795.626 250.928 798.346 252.721 801.335 253.936C804.324 255.152 807.523 255.766 810.75 255.744C813.976 255.722 817.167 255.065 820.139 253.809C823.111 252.554 825.806 250.724 828.071 248.426L834.907 241.505Z" fill="#457B9D"/>
<path d="M887.493 341.081L886.823 342.844C883.676 341.65 880.626 340.452 877.672 339.251C825.354 317.902 800.378 292.915 783.672 245.485L783.661 245.474C782.868 243.242 782.098 240.958 781.351 238.622L783.114 238.052C783.703 240.299 784.565 242.465 785.681 244.503C786.596 247.103 787.537 249.636 788.504 252.103C804.206 292.134 827.363 315.011 871.757 334.329C873.989 335.3 876.277 336.264 878.621 337.22C881.342 338.993 884.341 340.298 887.493 341.081V341.081Z" fill="#3F3D56"/>
<path d="M807.401 259.825L805.832 261.414L863.795 318.662L865.363 317.073L807.401 259.825Z" fill="#3F3D56"/>
<path d="M316.68 212.39L316.709 175.715L295.151 177.642L302.759 200.772L275.142 242.638C273.415 243.025 271.838 243.907 270.603 245.175C269.369 246.444 268.53 248.044 268.189 249.781C267.848 251.517 268.02 253.316 268.683 254.957C269.347 256.598 270.474 258.01 271.926 259.022C273.378 260.033 275.094 260.6 276.863 260.654C278.632 260.708 280.378 260.245 281.889 259.323C283.4 258.402 284.61 257.06 285.372 255.462C286.134 253.865 286.414 252.08 286.179 250.326L316.68 212.39Z" fill="#FFB6B6"/>
</g>
<defs>
<clipPath id="clip0_277_68">
<rect width="997.976" height="500.28" fill="white"/>
</clipPath>
</defs>
</svg>
